<?xml version="1.0" encoding="utf-8"?>
<!-- Generator: Adobe Illustrator 19.0.0, SVG Export Plug-In . SVG Version: 6.00 Build 0)  -->
<svg version="1.1" id="Layer_1" xmlns="http://www.w3.org/2000/svg" xmlns:xlink="http://www.w3.org/1999/xlink" x="0px" y="0px"
	 viewBox="0 0 841.9 595.3" style="enable-background:new 0 0 841.9 595.3;" xml:space="preserve">
<g>
	<g>
		<path d="M223.3,311.8c-0.3,0-0.5,0.1-0.5,0.2v21.1c0,0.2-0.8,0.2-0.8-0.1c-0.1-1.1-1.4-3.3-3.6-3.3c-3.6,0-6.2,4.4-15,4.4
			c-15.1,0-24.4-14-24.4-29.1c0-15.6,10.7-29.2,25.6-29.2c3.8,0,7,2.1,10.3,2.1c2.2,0,3.7-1,3.8-1.9c0.1-0.2,0.6-0.2,0.6,0v15.8
			c0,0.2-0.6,0.2-0.6,0c0-7.8-6.2-15.4-14.2-15.4c-3.5,0-7.2,0.7-9.9,3c-4.3,3.8-6.5,11.8-6.5,25.6c0,14.7,0.9,21.7,5.3,25.5
			c2.6,2.3,6.4,3.1,10,3.1c7.1,0,10.9-3.3,10.9-7.7V312c0-0.2-0.2-0.2-0.5-0.2h-6.8c-0.2,0-0.2-0.6,0-0.6h23.2c0.2,0,0.2,0.6,0,0.6
			H223.3z"/>
	</g>
	<g>
		<path d="M389,277.2h-15.4c-0.2,0-0.2,0.6,0,0.6h6.8c0.3,0,0.5,0.2,0.5,0.3v40.5l-26.2-40.1c-0.7-1.1-1.2-1.4-1.7-1.4h-16.5
			c-0.2,0-0.2,0.6,0,0.6c0,0,7.3,0,7.3,7.6v46.4c0,0.2-0.1,0.3-0.4,0.3h-6.9c-0.2,0-0.2,0.6,0,0.6H352c0.2,0,0.2-0.6,0-0.6h-6.9
			c-0.3,0-0.5-0.1-0.5-0.3v-46.4c0,0,0-1.5,1.5-1.8c1.3-0.3,2.4,0.8,5.6,5.6l29.2,44.5c0.2,0.3,0.8,0.2,0.8,0v-55.7
			c0-0.2,0.2-0.3,0.5-0.3h6.9C389.1,277.8,389.1,277.2,389,277.2z"/>
	</g>
	<g>
		<path d="M335.8,332.2h-6.7c-0.3,0-0.5-0.2-0.5-0.2l-21.1-55.8c-0.1-0.2-0.6-0.2-0.7,0l-18.9,52.8c-1.1,3.1-1.3,3.3-2,3.3h-2
			c-0.2,0.2-0.5,0.4-1.5,0.6h12.3c0.2,0,0.2-0.6,0-0.6h-7c-0.4,0-0.3-0.5,0.6-3.3l5.5-15h18.8l6.5,18.1c0,0.1-0.1,0.2-0.4,0.2h-7.2
			c-0.2,0-0.2,0.6,0,0.6h24.1C336,332.8,336,332.2,335.8,332.2z M294.1,313.2l6.8-18.9c0.2-0.4,0.9-1.9,2.7-1.8
			c1.4,0.1,2.5,2.6,4.1,7.1l4.9,13.6H294.1z"/>
	</g>
	<g>
		<path d="M510.1,332.2h-6.7c-0.3,0-0.5-0.2-0.5-0.2l-21.1-55.8c-0.1-0.2-0.6-0.2-0.7,0l-18.9,52.8c-1.1,3.1-1.3,3.3-2,3.3h-5.9
			c-0.2,0-0.2,0.6,0,0.6h14.7c0.2,0,0.2-0.6,0-0.6h-7c-0.4,0-0.3-0.5,0.6-3.3l5.5-15h18.8l6.5,18.1c0,0.1-0.1,0.2-0.4,0.2H486
			c-0.2,0-0.2,0.6,0,0.6h24.1C510.3,332.8,510.3,332.2,510.1,332.2z M468.4,313.2l6.8-18.9c0.2-0.4,0.9-1.9,2.7-1.8
			c1.4,0.1,2.5,2.6,4.1,7.1l4.9,13.6H468.4z"/>
	</g>
	<g>
		<g>
			<path d="M669.7,332.2H663c-0.3,0-0.5-0.2-0.5-0.2l-21.1-55.8c-0.1-0.2-0.6-0.2-0.7,0l-18.9,52.8c-1.1,3.1-1.3,3.3-2,3.3h-2.2
				c-0.2,0.4-1,0.6-1,0.6h12c0.2,0,0.2-0.6,0-0.6h-7c-0.4,0-0.3-0.5,0.6-3.3l5.5-15h18.8l6.5,18.1c0,0.1-0.1,0.2-0.4,0.2h-7.2
				c-0.2,0-0.2,0.6,0,0.6h24.1C669.8,332.8,669.8,332.2,669.7,332.2z M628,313.2l6.9-18.9c0.2-0.4,0.9-1.9,2.7-1.8
				c1.2,0.1,2.2,1.9,3.4,5.2l5.5,15.4H628z"/>
		</g>
		<g>
			<path d="M634.8,294.3c0,0.1,0,0.1,0,0.1L634.8,294.3z"/>
		</g>
	</g>
	<g>
		<path d="M284,332.2c-0.9,0.5-2,0.9-3.2,0.9c-3,0-4.7-2.9-4.7-6.9v-7.1c0-6.4-3.1-11.3-9.5-13.7c-4.2-1.7-0.2-3.8-0.2-3.8l0,0
			c4.4-2.3,7.3-6.2,7.3-10.7c0-7.7-7.1-13.6-18.7-13.6h-23.8c-0.2,0-0.2,0.6,0,0.6c0,0,7.4,0,7.4,7.6v46.4c0,0.2-0.2,0.3-0.5,0.3
			h-6.9c-0.2,0-0.2,0.6,0,0.6h25.2c0.2,0,0.2-0.6,0-0.6h-8.8c-0.4,0-0.5-0.1-0.5-0.3v-27.7h7.7c7.1,0,12.5,2.7,12.5,9.6v5.1
			c0,11.2,5,15.2,11.4,15.2c2.8,0,4.8-0.8,6.4-2L284,332.2z M254.7,303.5H247v-25.4c0-0.2,0.2-0.3,0.5-0.3h5.4
			c7.3,0,12.1,3.5,12.1,13.3C265,301.1,262.4,303.5,254.7,303.5z"/>
	</g>
	<g>
		<path d="M564.1,332.2c-0.9,0.5-2,0.9-3.2,0.9c-3,0-4.7-2.9-4.7-6.9v-7.1c0-6.5-3.2-11.5-9.8-13.8c-3.7-1.5-0.9-3.2-0.1-3.6
			c0.1,0,0.1-0.1,0.1-0.1c0,0,0.1,0,0.1,0l0,0c4.4-2.3,7.3-6.2,7.3-10.7c0-7.7-7.1-13.6-18.7-13.6h-23.8c-0.2,0-0.2,0.6,0,0.6h0.1
			c0,0,7.3,0,7.3,7.6v46.4c0,0.2-0.2,0.3-0.5,0.3h-6.9c-0.2,0-0.2,0.6,0,0.6h25.2c0.2,0,0.2-0.6,0-0.6h-8.8c-0.4,0-0.5-0.1-0.5-0.3
			v-27.7h7.7c7.1,0,12.5,2.7,12.5,9.6v5.1c0,11.2,5,15.2,11.4,15.2c2.8,0,4.8-0.8,6.4-2v0H564.1z M534.8,303.5h-7.7v-25.4
			c0-0.2,0.2-0.3,0.5-0.3h5.4c7.3,0,12.1,3.5,12.1,13.3C545.2,301.1,542.5,303.5,534.8,303.5z"/>
	</g>
	<g>
		<path d="M617.7,332.1c-0.9,0.5-1.8,0.9-3,0.9c-3,0-4.7-2.9-4.7-6.9v-7.1c0-6.5-3.2-11.5-9.8-13.8c-4.2-1.7,0.1-3.7,0.1-3.7
			c4.4-2.3,7.3-6.2,7.3-10.7c0-7.7-7.1-13.6-18.7-13.6h-23.8c-0.2,0-0.2,0.6,0,0.6h0.1c0,0,7.3,0,7.3,7.6v46.4
			c0,0.2-0.2,0.3-0.5,0.3h-6.9c-0.2,0-1,0.6-0.9,0.6h26.1c0.2,0,0.2-0.6,0-0.6h-8.8c-0.4,0-0.5-0.1-0.5-0.3v-27.7h7.7
			c7.1,0,12.5,2.7,12.5,9.6v5.1c0,11.2,5,15.2,11.4,15.2c2.8,0,4.8-0.8,6.4-2L617.7,332.1z M588.5,303.5h-7.7v-25.4
			c0-0.2,0.2-0.3,0.5-0.3h5.4c7.3,0,12.1,3.5,12.1,13.3C598.9,301.1,596.2,303.5,588.5,303.5z"/>
	</g>
	<g>
		<path d="M441.3,304.5l0.1,0c-3.3-1.3-1.4-2.9-0.5-3.5c0.1,0,0.2-0.1,0.2-0.1c0.1-0.1,0.2-0.1,0.2-0.1l0,0c4-2.3,7-6.1,7-10.7
			c0-8.7-8.5-12.9-18.1-12.9h-22c-0.2,0-0.2,0.6,0,0.6h0c0,0,7.3,0,7.3,7.6v46.4c0,0.2-0.2,0.3-0.5,0.3h-6.8c-0.2,0-0.2,0.6,0,0.6
			h25.9c12.2,0,18.3-7.2,18.3-14.7C452.4,311.3,447.8,306.6,441.3,304.5z M424.1,278.2c0-0.2,0.2-0.3,0.5-0.3h4.4
			c7.9,0,11.1,3.3,11.1,12.5c0,9.6-2.7,12.5-8.5,12.5h-7.6V278.2z M432,332.2h-7.4c-0.4,0-0.5-0.1-0.5-0.3v-28.4h6.8
			c7.8,0,13.1,2.5,13.1,15C444,328.9,439.3,332.2,432,332.2z"/>
	</g>
</g>
<g>
	<rect x="509.5" y="332.2" width="2.1" height="0.6"/>
	<rect x="334.9" y="332.2" width="2.6" height="0.6"/>
	<path d="M779.4,286.7h-1.5c-0.3-7.2-6.2-13-13.4-13h-17.7c0-7.6-6.3-13.8-13.9-13.8H657H467.5c-2.3,0-4.2-2-4.2-4.4
		c0-2.4,1.9-4.4,4.2-4.4c2.3,0,4.2,2,4.2,4.4h1c0-3-2.3-5.4-5.2-5.4c-2.9,0-5.2,2.4-5.2,5.4c0,3,2.3,5.4,5.2,5.4H657
		c12.7,0,24.7,5.4,33.3,14.4c0,0,0,0,0,0c0.4,0.4,0.7,0.8,1,1.1c0,0.1,0.1,0.1,0.1,0.2c0.9,1,1.8,2.1,2.6,3.2
		c0.1,0.2,0.3,0.4,0.4,0.5c0.2,0.3,0.4,0.5,0.5,0.8c0.2,0.2,0.3,0.5,0.5,0.7c0.2,0.2,0.3,0.5,0.5,0.7c0.2,0.3,0.3,0.6,0.5,0.8
		c0.1,0.2,0.3,0.5,0.4,0.7c0.2,0.3,0.4,0.7,0.5,1c0.1,0.2,0.2,0.4,0.3,0.6c0.3,0.5,0.5,1.1,0.8,1.6c1.9,4,3.2,8.4,3.8,12.8
		c0.3,2.2,0.5,4.4,0.5,6.5c0,2-0.1,4-0.4,6h0l-0.1,0.4c-0.3,2.2-0.8,4.4-1.4,6.5c0,0.1-0.1,0.2-0.1,0.4c-0.2,0.7-0.4,1.3-0.7,2
		c-0.2,0.4-0.3,0.8-0.5,1.3c-0.1,0.2-0.2,0.5-0.3,0.7c-0.3,0.7-0.6,1.3-0.9,2c-0.6,1.2-1.2,2.3-1.8,3.5c-2,3.4-4.3,6.5-7.1,9.3
		c-8.7,8.8-20.2,13.7-32.6,13.7H444c-2.9,0-5.2,2.4-5.2,5.4c0,3,2.4,5.4,5.2,5.4s5.2-2.4,5.2-5.4h-1c0,2.4-1.9,4.4-4.2,4.4
		s-4.2-2-4.2-4.4s1.9-4.4,4.2-4.4h213h3h72.9c7.6,0,13.8-6.2,13.9-13.8h17.7c7.3,0,13.2-5.8,13.4-13h1.5c11,0,20-9,20-20
		C799.4,295.7,790.4,286.7,779.4,286.7z M776.8,287.2c0,5.9-4.1,10.9-9.7,12.1c4.5-2.2,7.7-6.8,7.7-12.1c0-5.4-3.1-10-7.7-12.1
		C772.7,276.3,776.8,281.3,776.8,287.2z M761.4,274.7c6.9,0,12.5,5.6,12.5,12.5c0,6.9-5.6,12.5-12.5,12.5H760
		c4.9-2,8.4-6.8,8.4-12.5c0-5.6-3.5-10.5-8.4-12.5H761.4z M703.2,299.7c-0.1-0.9-0.3-1.7-0.5-2.5c0-0.1-0.1-0.3-0.1-0.4
		c-0.2-0.9-0.4-1.9-0.7-2.8c0-0.1-0.1-0.3-0.1-0.4c-0.3-0.9-0.6-1.8-0.9-2.7c0-0.1-0.1-0.3-0.1-0.4c-0.3-0.9-0.7-1.7-1-2.6
		c0-0.1-0.1-0.1-0.1-0.2h33.1h34.5c-0.3,6.6-5.7,12-12.4,12H703.2z M698.1,284.5c-0.1-0.2-0.2-0.3-0.3-0.5c-0.4-0.7-0.8-1.4-1.3-2.1
		c0,0-0.1-0.1-0.1-0.1c-0.4-0.7-0.9-1.3-1.3-2c-0.1-0.1-0.1-0.2-0.2-0.3c-1-1.4-2.1-2.8-3.3-4.1c0,0,0,0,0,0
		c-0.2-0.2-0.4-0.5-0.6-0.7h45.2c-0.5,6.7-6,12-12.8,12h-24.2c0-0.1-0.1-0.2-0.1-0.3C698.8,285.8,698.5,285.2,698.1,284.5z
		 M767.3,286.7H738c4.8-1.9,8.3-6.5,8.7-12h8.2C761.6,274.7,767.1,280.1,767.3,286.7z M745.7,273.8c0,5.8-3.9,10.8-9.2,12.4
		c4.5-2.3,7.6-7,7.6-12.4s-3.1-10-7.6-12.4C741.8,263,745.7,268,745.7,273.8z M730.2,260.9c7.1,0,12.9,5.8,12.9,12.9
		c0,7.1-5.8,12.9-12.9,12.9h-1.5c5.1-2.1,8.7-7,8.7-12.9c0-5.8-3.6-10.8-8.7-12.9H730.2z M723.5,260.9c7.1,0,12.8,5.7,12.9,12.8
		h-46.3c-6.4-6.4-14.6-10.9-23.6-12.8H723.5z M703.3,300.7h61c7.2,0,13-5.6,13.4-12.6c8.9,1.6,15.6,9.5,15.6,18.7
		c0,9.1-6.7,17-15.6,18.7c-0.4-7-6.3-12.6-13.4-12.6h-61c0.3-2,0.4-4,0.4-6C703.7,304.8,703.6,302.7,703.3,300.7z M699.7,325.7
		c0-0.1,0.1-0.2,0.1-0.3c0.2-0.5,0.4-1,0.6-1.6c0.1-0.3,0.2-0.6,0.4-1c0.2-0.4,0.3-0.8,0.4-1.2c0.1-0.4,0.3-0.9,0.4-1.3
		c0-0.1,0.1-0.2,0.1-0.3c0.6-2.1,1.1-4.2,1.4-6.3h51.7c6.7,0,12.2,5.3,12.4,12h-34.5H699.7z M691.4,338.3c0.2-0.2,0.4-0.4,0.6-0.6
		c0.2-0.3,0.5-0.5,0.7-0.8c0.2-0.2,0.4-0.5,0.6-0.7c0.2-0.3,0.4-0.5,0.6-0.8c0.2-0.2,0.4-0.5,0.5-0.7c0.2-0.3,0.4-0.6,0.6-0.8
		c0.2-0.2,0.3-0.5,0.5-0.7c0.2-0.3,0.4-0.6,0.6-0.9c0.2-0.2,0.3-0.5,0.5-0.7c0.2-0.3,0.4-0.6,0.5-0.9c0.2-0.3,0.3-0.5,0.4-0.8
		c0.2-0.3,0.3-0.6,0.5-0.9c0.1-0.3,0.3-0.5,0.4-0.8c0.2-0.3,0.3-0.6,0.5-0.9c0.1-0.2,0.2-0.4,0.3-0.6h24.2c6.8,0,12.4,5.3,12.8,12
		h-45.2C691.2,338.6,691.3,338.5,691.4,338.3z M666.7,352.5c8.8-1.9,16.9-6.2,23.5-12.8h46.2c0,7.1-5.8,12.8-12.9,12.8H666.7z
		 M728.6,352.5c5.1-2.1,8.7-7,8.7-12.9c0-5.8-3.6-10.8-8.7-12.9h1.9c7.1,0,12.9,5.8,12.9,12.9c0,7.1-5.8,12.9-12.9,12.9H728.6z
		 M737.5,351.6c4.1-2.4,6.9-6.9,6.9-12s-2.8-9.6-6.9-12c4.8,1.9,8.2,6.5,8.2,12C745.7,345,742.3,349.7,737.5,351.6z M746.7,338.7
		c-0.4-5.4-3.9-10-8.7-12h29.4c-0.3,6.6-5.7,12-12.4,12H746.7z M760,338.7c4.9-2,8.4-6.8,8.4-12.5c0-5.6-3.5-10.5-8.4-12.5h1.4
		c6.9,0,12.5,5.6,12.5,12.5c0,6.9-5.6,12.5-12.5,12.5H760z M767.2,338.3c4.5-2.2,7.7-6.8,7.7-12.1c0-5.3-3.1-10-7.7-12.1
		c5.5,1.3,9.7,6.2,9.7,12.1C776.8,332.1,772.7,337.1,767.2,338.3z M780.8,325.6c7.9-2.7,13.5-10.3,13.5-18.9
		c0-8.6-5.6-16.2-13.5-18.9c9.8,0.8,17.5,8.9,17.5,18.9C798.4,316.7,790.6,324.9,780.8,325.6z"/>
	<path d="M404.5,352.5h-213c-12.3,0-23.9-4.8-32.6-13.7c-3.7-3.8-6.7-8.1-8.9-12.8c-0.3-0.7-0.6-1.3-0.9-2c-0.1-0.2-0.2-0.5-0.3-0.7
		c-0.2-0.4-0.3-0.8-0.5-1.2c-0.2-0.7-0.5-1.4-0.7-2c0-0.1-0.1-0.2-0.1-0.3c-0.6-2.1-1.1-4.3-1.4-6.5l-0.1-0.4h0c-0.3-2-0.4-4-0.4-6
		c0-2.1,0.2-4.3,0.5-6.5c0.6-4.5,1.9-8.8,3.8-12.8c0.3-0.5,0.5-1.1,0.8-1.6c0.1-0.2,0.2-0.4,0.3-0.6c0.2-0.3,0.4-0.7,0.5-1
		c0.1-0.2,0.3-0.5,0.4-0.7c0.2-0.3,0.3-0.6,0.5-0.8c0.2-0.3,0.3-0.5,0.5-0.7c0.2-0.2,0.3-0.5,0.5-0.7c0.2-0.3,0.4-0.5,0.5-0.8
		c0.1-0.2,0.3-0.4,0.4-0.5c0.8-1.1,1.7-2.2,2.6-3.2c0-0.1,0.1-0.1,0.1-0.2c0.3-0.4,0.7-0.8,1-1.1c0,0,0,0,0,0
		c8.5-9,20.5-14.4,33.3-14.4H381c2.9,0,5.2-2.4,5.2-5.4c0-3-2.3-5.4-5.2-5.4c-2.9,0-5.2,2.4-5.2,5.4h1c0-2.4,1.9-4.4,4.2-4.4
		c2.3,0,4.2,2,4.2,4.4c0,2.4-1.9,4.4-4.2,4.4H191.5h-75.9c-7.6,0-13.8,6.2-13.9,13.8H84.1c-7.3,0-13.2,5.8-13.4,13h-1.5
		c-11,0-20,9-20,20c0,11,9,20,20,20h1.5c0.3,7.2,6.2,13,13.4,13h17.7c0,7.6,6.3,13.8,13.9,13.8h72.9h3h213c2.3,0,4.2,2,4.2,4.4
		s-1.9,4.4-4.2,4.4c-2.3,0-4.2-2-4.2-4.4h-1c0,3,2.4,5.4,5.2,5.4c2.9,0,5.2-2.4,5.2-5.4C409.7,354.9,407.4,352.5,404.5,352.5z
		 M157.4,338.7h-45.2c0.5-6.7,6-12,12.8-12h24.2c0.1,0.2,0.2,0.4,0.3,0.6c0.2,0.3,0.3,0.6,0.5,0.9c0.1,0.3,0.3,0.5,0.4,0.8
		c0.2,0.3,0.3,0.6,0.5,0.9c0.1,0.3,0.3,0.5,0.4,0.8c0.2,0.3,0.4,0.6,0.5,0.9c0.2,0.3,0.3,0.5,0.5,0.7c0.2,0.3,0.4,0.6,0.6,0.9
		c0.2,0.2,0.3,0.5,0.5,0.7c0.2,0.3,0.4,0.6,0.6,0.8c0.2,0.2,0.4,0.5,0.5,0.7c0.2,0.3,0.4,0.5,0.6,0.8c0.2,0.2,0.4,0.5,0.6,0.7
		c0.2,0.3,0.4,0.5,0.7,0.8c0.2,0.2,0.4,0.4,0.6,0.7C157.2,338.5,157.3,338.6,157.4,338.7z M115.7,325.7H81.2c0.3-6.6,5.7-12,12.4-12
		h51.7c0.3,2.1,0.8,4.2,1.4,6.3c0,0.1,0.1,0.2,0.1,0.3c0.1,0.4,0.3,0.9,0.4,1.3c0.1,0.4,0.3,0.8,0.4,1.2c0.1,0.3,0.2,0.7,0.4,1
		c0.2,0.5,0.4,1,0.6,1.5c0,0.1,0.1,0.2,0.1,0.3H115.7z M84.1,312.7c-7.1,0-13,5.6-13.4,12.6c-8.9-1.6-15.6-9.5-15.6-18.7
		c0-9.1,6.7-17,15.6-18.7c0.4,7,6.3,12.6,13.4,12.6h61c-0.3,2.1-0.4,4.1-0.4,6c0,2,0.1,4,0.4,6H84.1z M148.8,287.7
		c0,0.1-0.1,0.1-0.1,0.2c-0.4,0.9-0.7,1.7-1.1,2.6c0,0.1-0.1,0.3-0.1,0.4c-0.3,0.9-0.6,1.8-0.9,2.7c0,0.1-0.1,0.3-0.1,0.4
		c-0.3,0.9-0.5,1.8-0.7,2.8c0,0.1-0.1,0.2-0.1,0.4c-0.2,0.8-0.3,1.7-0.5,2.6H93.6c-6.7,0-12.2-5.3-12.4-12h34.5H148.8z M156.8,275.4
		C156.8,275.4,156.8,275.4,156.8,275.4c-1.2,1.3-2.3,2.7-3.3,4.1c-0.1,0.1-0.1,0.2-0.2,0.3c-0.5,0.7-0.9,1.3-1.3,2
		c0,0-0.1,0.1-0.1,0.1c-0.4,0.7-0.9,1.4-1.3,2.1c-0.1,0.2-0.2,0.3-0.2,0.5c-0.3,0.6-0.7,1.3-1,1.9c0,0.1-0.1,0.2-0.1,0.3H125
		c-6.8,0-12.4-5.3-12.8-12h45.2C157.2,275,157,275.2,156.8,275.4z M182,260.9c-8.9,1.9-17.1,6.4-23.6,12.8h-46.3
		c0-7.1,5.8-12.8,12.9-12.8H182z M119.9,260.9c-5.1,2.1-8.7,7-8.7,12.9c0,5.8,3.6,10.8,8.7,12.9h-1.5c-7.1,0-12.9-5.8-12.9-12.9
		c0-7.1,5.8-12.9,12.9-12.9H119.9z M112,261.5c-4.5,2.3-7.6,7-7.6,12.4s3.1,10,7.6,12.4c-5.3-1.6-9.2-6.5-9.2-12.4
		S106.7,263,112,261.5z M101.8,274.7c0.4,5.4,3.9,10,8.7,12H81.2c0.3-6.6,5.7-12,12.4-12H101.8z M88.5,274.7
		c-4.9,2-8.4,6.8-8.4,12.5c0,5.6,3.5,10.5,8.4,12.5h-1.4c-6.9,0-12.5-5.6-12.5-12.5c0-6.9,5.6-12.5,12.5-12.5H88.5z M81.3,275.1
		c-4.5,2.2-7.7,6.8-7.7,12.1c0,5.3,3.1,10,7.7,12.1c-5.5-1.3-9.7-6.2-9.7-12.1C71.7,281.3,75.8,276.3,81.3,275.1z M50.2,306.7
		c0-10,7.7-18.2,17.5-18.9c-7.9,2.7-13.5,10.3-13.5,18.9c0,8.6,5.6,16.2,13.5,18.9C57.9,324.9,50.2,316.7,50.2,306.7z M71.7,326.2
		c0-5.9,4.1-10.9,9.7-12.1c-4.5,2.2-7.7,6.8-7.7,12.1c0,5.3,3.1,10,7.7,12.1C75.8,337.1,71.7,332.1,71.7,326.2z M87.1,338.7
		c-6.9,0-12.5-5.6-12.5-12.5c0-6.9,5.6-12.5,12.5-12.5h1.4c-4.9,2-8.4,6.8-8.4,12.5c0,5.6,3.5,10.5,8.4,12.5H87.1z M81.2,326.7h29.4
		c-4.8,1.9-8.3,6.5-8.7,12h-8.2C86.9,338.7,81.4,333.3,81.2,326.7z M102.8,339.6c0-5.5,3.4-10.1,8.2-12c-4.1,2.4-6.9,6.9-6.9,12
		s2.8,9.6,6.9,12C106.2,349.7,102.8,345,102.8,339.6z M118,352.5c-7.1,0-12.9-5.8-12.9-12.9c0-7.1,5.8-12.9,12.9-12.9h1.9
		c-5.1,2.1-8.7,7-8.7,12.9c0,5.8,3.6,10.8,8.7,12.9H118z M125,352.5c-7.1,0-12.8-5.7-12.9-12.8h46.2c6.5,6.6,14.6,10.9,23.5,12.8
		H125z"/>
</g>
<g>
	<g>
		<path d="M447.8,236.6C447.8,236.6,447.9,236.6,447.8,236.6C447.8,236.6,447.8,236.6,447.8,236.6z"/>
	</g>
	<g>
		<path d="M452.6,250.1c-2.7,3.4-5.1,4.7-7.5,4c-0.4-0.1-0.8-0.6-0.8-1.4c0-0.8,0.3-1.8,0.8-2.8c2.1-4.7,4.2-8.9,5.9-12.6
			c0.1-0.1,0.1-0.2,0.1-0.3c0-0.4-3.2-0.2-3.2-0.3c0,0,0,0,0,0c-0.3,0.1-0.5,0.3-0.7,0.6l-0.2,0.4c-0.4-1-1.2-1.5-2.5-1.5
			c-4.7,0-14.2,6.1-14.2,14.3c0,0.2,0,0.4,0,0.5c-2.1,2-4.3,3-6.6,3c-0.8,0-1.2-0.4-1.2-1.4c0-0.9,0.4-2.2,1.2-4.1
			c2.8-6.5,5-11.9,6.7-16c0.2-0.1,0.3-0.1,0.5-0.2c2.2-0.9,4.4-2.2,6.1-3.9h0c4.3-3.7,7.5-8.6,7.5-12.1c0-2-0.8-3.3-2.6-3.3
			c-3.7,0-9.6,8.3-14.8,19.3c-0.2,0-0.5,0.1-0.7,0.1c-1.4,0.3-3,0.4-4.7,0.6c-0.8,0.1-1.7,0.1-2.6,0.2c-0.9,0.1-1.8,0.1-2.7,0.1
			c-1.8,0.1-3.7,0-5.7,0.1c-2,0-4.1,0.3-6.1,0.9c-2,0.6-3.9,1.6-5.5,3c-1.6,1.3-2.8,3.1-3.6,4.8c-1.6,3.6-1.7,7.4-0.9,10.4
			c0.4,1.5,0.9,2.8,1.5,3.9c0.6,1.1,1.3,1.9,2,2.5c0.7,0.6,1.3,0.9,1.7,1.2c0.4,0.2,0.7,0.3,0.7,0.3s-0.2-0.1-0.6-0.4
			c-0.4-0.3-0.9-0.7-1.4-1.4c-1.1-1.3-2.2-3.5-2.7-6.3c-0.4-2.8-0.2-6.2,1.4-9.4c0.8-1.5,1.9-3,3.3-4.1c1.4-1.2,3-2,4.8-2.6
			c1.8-0.6,3.7-0.8,5.5-0.9c1.9-0.1,3.9-0.1,5.7-0.2c0.9-0.1,1.8-0.1,2.7-0.3c0.4,0,0.7-0.1,1-0.1v0c0,0,2.7-0.1,6.1-0.9l-0.1,0.2
			c-3.9,8.5-7.2,15.1-7.2,18.4c0,2.1,1,3.1,3.1,3.1c3.3,0,6.1-1.1,8.5-3.2c0.6,1.9,2.2,3.2,4.4,3.2c2.9,0,5.1-1.5,6.7-4.5
			c-0.1,0.6-0.1,1-0.1,1.4c0,2.1,0.9,3.1,2.5,3.4c6.1,0.9,10.6-5.8,10.6-6C454.5,249.5,453.3,249.3,452.6,250.1z M441.6,214.2
			c1.2-0.3,1.8,0.4,1.7,2.4c-0.2,3.8-4.1,9.4-8.9,12.8c-0.8,0.5-2,1.2-3.5,1.8C436.2,219.8,439.6,214.7,441.6,214.2z M436,254.1
			c-1.4,0-2.1-0.9-2.1-2.6c0-7.7,6.9-14.5,10.3-14.5c1.2,0,2,0.5,2.3,1.6C442,250.1,439.1,254.1,436,254.1z"/>
	</g>
</g>
<path d="M434.2,356.9c-2.7-2.7-9.9-4.1-9.9-4.1c1.2,5.9,2.8,8.4,3.6,9.4c-0.1,1.9-1.7,3.5-3.6,3.5c-1.9,0-3.5-1.5-3.6-3.4
	c0.8-1,2.4-3.5,3.6-9.4c0,0-7.2,1.4-9.9,4.1c-1.6,1.6-1.6,4.2,0,5.8c0.8,0.8,1.9,1.2,2.9,1.2c0.9,0,1.8-0.3,2.5-0.9
	c0.5,2.1,2.3,3.6,4.5,3.6c2.2,0,4-1.5,4.5-3.6c0.7,0.6,1.6,0.9,2.5,0.9c1.1,0,2.1-0.4,2.9-1.2C435.8,361.1,435.8,358.5,434.2,356.9z
	 M419.5,362L419.5,362c-0.6,0.6-1.4,1-2.3,1c-0.8,0-1.6-0.3-2.2-0.9c-0.6-0.6-0.9-1.4-0.9-2.2c0-0.8,0.3-1.6,0.9-2.2
	c1.6-1.6,5.4-2.9,7.9-3.5C421.4,360.4,419.6,362,419.5,362L419.5,362z M433.5,362.1c-0.6,0.6-1.4,0.9-2.2,0.9
	c-0.8,0-1.6-0.3-2.2-0.9l-0.1,0l0,0c0,0-1.8-1.6-3.4-7.8c2.4,0.6,6.3,1.8,7.9,3.5c0.6,0.6,0.9,1.4,0.9,2.2
	C434.4,360.7,434.1,361.5,433.5,362.1z"/>
</svg>
